<svg width="203" height="77" viewBox="0 0 203 77" fill="none" xmlns="http://www.w3.org/2000/svg">
<path d="M10.752 62.64C9.6 62.64 8.74667 62.4693 8.192 62.128C7.68 61.7867 7.36 61.3173 7.232 60.72C7.104 60.08 7.04 59.4187 7.04 58.736V27.632C7.04 26.0533 7.25333 24.6027 7.68 23.28C8.10667 21.9147 8.78933 20.7413 9.728 19.76C10.6667 18.7787 11.8827 18.0107 13.376 17.456C14.8693 16.8587 16.6827 16.56 18.816 16.56C19.5413 16.56 20.1813 16.6453 20.736 16.816C21.3333 16.944 21.8027 17.264 22.144 17.776C22.528 18.288 22.72 19.1627 22.72 20.4C22.72 21.552 22.528 22.4053 22.144 22.96C21.8027 23.5147 21.3333 23.856 20.736 23.984C20.1387 24.112 19.4773 24.176 18.752 24.176C18.0267 24.176 17.3867 24.2187 16.832 24.304C16.32 24.3467 15.8933 24.4747 15.552 24.688C15.2533 24.9013 15.0187 25.2427 14.848 25.712C14.72 26.1813 14.656 26.7787 14.656 27.504V58.864C14.656 59.5467 14.5707 60.1867 14.4 60.784C14.272 61.3387 13.9307 61.7867 13.376 62.128C12.8213 62.4693 11.9467 62.64 10.752 62.64ZM4.416 31.728L11.008 31.792L19.84 31.536C20.5653 31.536 21.2053 31.6213 21.76 31.792C22.3573 31.92 22.8267 32.2613 23.168 32.816C23.5093 33.328 23.68 34.1813 23.68 35.376C23.68 36.4853 23.5093 37.3173 23.168 37.872C22.8267 38.4267 22.3787 38.7893 21.824 38.96C21.2693 39.088 20.6293 39.152 19.904 39.152L11.328 39.024L4.224 39.088C3.15733 39.0453 2.41067 38.7467 1.984 38.192C1.6 37.5947 1.408 36.6347 1.408 35.312C1.408 34.0747 1.64267 33.1787 2.112 32.624C2.624 32.0267 3.392 31.728 4.416 31.728ZM111.539 62.576C109.576 62.576 107.72 62.1707 105.971 61.36C104.221 60.5493 102.685 59.44 101.363 58.032C100.04 56.5813 98.9945 54.896 98.2265 52.976C97.4585 51.0133 97.0745 48.9227 97.0745 46.704C97.0745 44.5707 97.4585 42.5653 98.2265 40.688C98.9945 38.768 100.04 37.104 101.363 35.696C102.728 34.2453 104.285 33.1147 106.035 32.304C107.784 31.4933 109.619 31.088 111.539 31.088C113.587 31.088 115.421 31.4933 117.043 32.304C118.664 33.1147 120.029 34.2453 121.139 35.696C122.291 37.104 123.165 38.768 123.763 40.688C124.36 42.5653 124.68 44.592 124.723 46.768C124.723 48.944 124.424 50.992 123.827 52.912C123.272 54.7893 122.419 56.4533 121.267 57.904C120.157 59.3547 118.771 60.5067 117.107 61.36C115.485 62.1707 113.629 62.576 111.539 62.576ZM112.563 55.088C114.056 55.088 115.379 54.7467 116.531 54.064C117.725 53.3387 118.664 52.3573 119.347 51.12C120.072 49.8827 120.435 48.4747 120.435 46.896C120.435 45.2747 120.072 43.8453 119.347 42.608C118.664 41.3707 117.725 40.3893 116.531 39.664C115.379 38.9387 114.056 38.576 112.563 38.576C111.069 38.576 109.725 38.9387 108.531 39.664C107.336 40.3467 106.376 41.328 105.651 42.608C104.968 43.8453 104.627 45.2747 104.627 46.896C104.627 48.4747 104.968 49.8827 105.651 51.12C106.376 52.3573 107.336 53.3387 108.531 54.064C109.768 54.7467 111.112 55.088 112.563 55.088ZM124.403 62.576C123.208 62.576 122.333 62.384 121.779 62C121.224 61.5733 120.861 60.912 120.691 60.016V20.592C120.691 19.8667 120.733 19.2267 120.819 18.672C120.947 18.0747 121.267 17.6053 121.779 17.264C122.333 16.88 123.187 16.688 124.339 16.688C125.576 16.688 126.451 16.8587 126.963 17.2C127.475 17.5413 127.795 18.0107 127.923 18.608C128.093 19.1627 128.179 19.8027 128.179 20.528V58.672C128.179 59.3973 128.115 60.0587 127.987 60.656C127.859 61.2533 127.517 61.7227 126.963 62.064C126.451 62.4053 125.597 62.576 124.403 62.576ZM138.239 62.64C137.087 62.64 136.234 62.448 135.679 62.064C135.124 61.7227 134.783 61.2747 134.655 60.72C134.527 60.1227 134.463 59.4613 134.463 58.736V34.928C134.463 34.2453 134.527 33.6267 134.655 33.072C134.826 32.4747 135.167 32.0053 135.679 31.664C136.234 31.3227 137.108 31.152 138.303 31.152C139.498 31.152 140.351 31.3227 140.863 31.664C141.418 32.0053 141.759 32.4747 141.887 33.072C142.015 33.6693 142.079 34.3307 142.079 35.056V58.8C142.079 59.5253 142.015 60.1867 141.887 60.784C141.759 61.3387 141.418 61.7867 140.863 62.128C140.351 62.4693 139.476 62.64 138.239 62.64ZM138.239 24.944C137.002 24.944 136.084 24.7733 135.487 24.432C134.932 24.048 134.57 23.536 134.399 22.896C134.271 22.256 134.207 21.552 134.207 20.784C134.207 19.9733 134.271 19.2693 134.399 18.672C134.57 18.0747 134.954 17.6053 135.551 17.264C136.148 16.88 137.066 16.688 138.303 16.688C139.583 16.688 140.5 16.88 141.055 17.264C141.61 17.648 141.972 18.16 142.143 18.8C142.314 19.3973 142.399 20.1013 142.399 20.912C142.399 21.6373 142.314 22.32 142.143 22.96C141.972 23.6 141.61 24.0907 141.055 24.432C140.5 24.7733 139.562 24.944 138.239 24.944ZM155.052 62.64C153.9 62.64 153.047 62.4693 152.492 62.128C151.98 61.7867 151.66 61.3173 151.532 60.72C151.404 60.08 151.34 59.4187 151.34 58.736V27.632C151.34 26.0533 151.553 24.6027 151.98 23.28C152.407 21.9147 153.089 20.7413 154.028 19.76C154.967 18.7787 156.183 18.0107 157.676 17.456C159.169 16.8587 160.983 16.56 163.116 16.56C163.841 16.56 164.481 16.6453 165.036 16.816C165.633 16.944 166.103 17.264 166.444 17.776C166.828 18.288 167.02 19.1627 167.02 20.4C167.02 21.552 166.828 22.4053 166.444 22.96C166.103 23.5147 165.633 23.856 165.036 23.984C164.439 24.112 163.777 24.176 163.052 24.176C162.327 24.176 161.687 24.2187 161.132 24.304C160.62 24.3467 160.193 24.4747 159.852 24.688C159.553 24.9013 159.319 25.2427 159.148 25.712C159.02 26.1813 158.956 26.7787 158.956 27.504V58.864C158.956 59.5467 158.871 60.1867 158.7 60.784C158.572 61.3387 158.231 61.7867 157.676 62.128C157.121 62.4693 156.247 62.64 155.052 62.64ZM148.716 31.728L155.308 31.792L164.14 31.536C164.865 31.536 165.505 31.6213 166.06 31.792C166.657 31.92 167.127 32.2613 167.468 32.816C167.809 33.328 167.98 34.1813 167.98 35.376C167.98 36.4853 167.809 37.3173 167.468 37.872C167.127 38.4267 166.679 38.7893 166.124 38.96C165.569 39.088 164.929 39.152 164.204 39.152L155.628 39.024L148.524 39.088C147.457 39.0453 146.711 38.7467 146.284 38.192C145.9 37.5947 145.708 36.6347 145.708 35.312C145.708 34.0747 145.943 33.1787 146.412 32.624C146.924 32.0267 147.692 31.728 148.716 31.728ZM178.674 75.248C177.309 74.6507 176.519 73.968 176.306 73.2C176.093 72.4747 176.285 71.4933 176.882 70.256L193.394 33.264C193.991 31.8987 194.631 31.088 195.314 30.832C195.997 30.5333 197.042 30.6827 198.45 31.28C199.773 31.8773 200.541 32.5387 200.754 33.264C201.01 33.9893 200.861 34.9707 200.306 36.208L183.666 73.392C183.111 74.7573 182.493 75.5467 181.81 75.76C181.127 76.016 180.082 75.8453 178.674 75.248ZM184.626 59.568L169.842 36.848C169.074 35.696 168.754 34.736 168.882 33.968C169.053 33.2 169.735 32.4533 170.93 31.728C172.253 30.9173 173.277 30.5973 174.002 30.768C174.77 30.9387 175.538 31.6213 176.306 32.816L188.018 51.056L184.626 59.568Z" fill="#FFB966"/>
<path d="M42.4705 63.024C40.4225 63.024 38.4172 62.64 36.4545 61.872C34.5345 61.0613 32.7852 59.9307 31.2065 58.48C29.6705 57.0293 28.4332 55.3227 27.4945 53.36C26.5985 51.3973 26.1505 49.2427 26.1505 46.896C26.1505 44.6347 26.5772 42.5227 27.4305 40.56C28.2838 38.5973 29.4572 36.8693 30.9505 35.376C32.4438 33.8827 34.1505 32.7307 36.0705 31.92C38.0332 31.0667 40.1238 30.64 42.3425 30.64C45.3292 30.64 48.0385 31.3653 50.4705 32.816C52.9025 34.224 54.8438 36.144 56.2945 38.576C57.7452 41.008 58.4705 43.76 58.4705 46.832C58.4705 49.264 58.0225 51.4827 57.1265 53.488C56.2305 55.4507 55.0145 57.1573 53.4785 58.608C51.9425 60.016 50.2145 61.104 48.2945 61.872C46.4172 62.64 44.4758 63.024 42.4705 63.024ZM42.3425 55.472C43.7505 55.472 45.0945 55.1307 46.3745 54.448C47.6972 53.7227 48.7638 52.6987 49.5745 51.376C50.4278 50.0533 50.8545 48.496 50.8545 46.704C50.8545 45.04 50.4705 43.568 49.7025 42.288C48.9772 41.008 47.9745 40.0053 46.6945 39.28C45.4145 38.5547 43.9425 38.192 42.2785 38.192C40.6998 38.192 39.2705 38.576 37.9905 39.344C36.7105 40.0693 35.6865 41.0933 34.9185 42.416C34.1932 43.696 33.8305 45.1467 33.8305 46.768C33.8305 48.56 34.2358 50.1173 35.0465 51.44C35.8572 52.72 36.9025 53.7227 38.1825 54.448C39.5052 55.1307 40.8918 55.472 42.3425 55.472ZM77.5805 63.024C75.5325 63.024 73.5272 62.64 71.5645 61.872C69.6445 61.0613 67.8952 59.9307 66.3165 58.48C64.7805 57.0293 63.5432 55.3227 62.6045 53.36C61.7085 51.3973 61.2605 49.2427 61.2605 46.896C61.2605 44.6347 61.6872 42.5227 62.5405 40.56C63.3938 38.5973 64.5672 36.8693 66.0605 35.376C67.5538 33.8827 69.2605 32.7307 71.1805 31.92C73.1432 31.0667 75.2338 30.64 77.4525 30.64C80.4392 30.64 83.1485 31.3653 85.5805 32.816C88.0125 34.224 89.9538 36.144 91.4045 38.576C92.8552 41.008 93.5805 43.76 93.5805 46.832C93.5805 49.264 93.1325 51.4827 92.2365 53.488C91.3405 55.4507 90.1245 57.1573 88.5885 58.608C87.0525 60.016 85.3245 61.104 83.4045 61.872C81.5272 62.64 79.5858 63.024 77.5805 63.024ZM77.4525 55.472C78.8605 55.472 80.2045 55.1307 81.4845 54.448C82.8072 53.7227 83.8738 52.6987 84.6845 51.376C85.5378 50.0533 85.9645 48.496 85.9645 46.704C85.9645 45.04 85.5805 43.568 84.8125 42.288C84.0872 41.008 83.0845 40.0053 81.8045 39.28C80.5245 38.5547 79.0525 38.192 77.3885 38.192C75.8098 38.192 74.3805 38.576 73.1005 39.344C71.8205 40.0693 70.7965 41.0933 70.0285 42.416C69.3032 43.696 68.9405 45.1467 68.9405 46.768C68.9405 48.56 69.3458 50.1173 70.1565 51.44C70.9672 52.72 72.0125 53.7227 73.2925 54.448C74.6152 55.1307 76.0018 55.472 77.4525 55.472Z" fill="#CDCDCD"/>
<circle cx="44" cy="45" r="7" fill="#FADC69"/>
<circle cx="79" cy="45" r="7" fill="#FADC69"/>
<g filter="url(#filter0_f_102_42)">
<circle cx="42.5" cy="46.5" r="2.5" fill="white" fill-opacity="0.5"/>
</g>
<g filter="url(#filter1_f_102_42)">
<circle cx="80.5" cy="43.5" r="2.5" fill="white" fill-opacity="0.5"/>
</g>
<defs>
<filter id="filter0_f_102_42" x="35" y="39" width="15" height="15" filterUnits="userSpaceOnUse" color-interpolation-filters="sRGB">
<feFlood flood-opacity="0" result="BackgroundImageFix"/>
<feBlend mode="normal" in="SourceGraphic" in2="BackgroundImageFix" result="shape"/>
<feGaussianBlur stdDeviation="2.5" result="effect1_foregroundBlur_102_42"/>
</filter>
<filter id="filter1_f_102_42" x="73" y="36" width="15" height="15" filterUnits="userSpaceOnUse" color-interpolation-filters="sRGB">
<feFlood flood-opacity="0" result="BackgroundImageFix"/>
<feBlend mode="normal" in="SourceGraphic" in2="BackgroundImageFix" result="shape"/>
<feGaussianBlur stdDeviation="2.5" result="effect1_foregroundBlur_102_42"/>
</filter>
</defs>
</svg>
